<?xml version="1.0" encoding="iso-8859-1"?>
<!-- Generator: Adobe Illustrator 19.0.0, SVG Export Plug-In . SVG Version: 6.00 Build 0)  -->
<svg version="1.1" id="Capa_1" xmlns="http://www.w3.org/2000/svg" xmlns:xlink="http://www.w3.org/1999/xlink" x="0px" y="0px"
	 viewBox="0 0 512 512" style="enable-background:new 0 0 512 512;" xml:space="preserve">
<circle style="fill:#54ADE3;" cx="418.133" cy="341.333" r="59.733"/>
<path style="fill:#E64A45;" d="M151.799,8.533h-40.866l34.133,51.2h102.4C226.142,27.75,190.242,8.533,151.799,8.533z"/>
<path style="fill:#FFC145;" d="M16.461,101.871l-7.927,9.062l7.927,9.062c31.94,36.497,81.254,52.659,128.606,42.138v-102.4
	C97.715,49.212,48.401,65.374,16.461,101.871z"/>
<path style="fill:#E64A45;" d="M110.933,213.333h40.866c38.443,0,74.342-19.217,95.667-51.2h-102.4L110.933,213.333z"/>
<path style="fill:#DDE0E6;" d="M313.173,59.733H145.067v102.4h168.107c21.188-0.017,42.231-3.507,62.293-10.325V70.059
	C355.405,63.241,334.362,59.75,313.173,59.733z"/>
<g>
	<path style="fill:#54ADE3;" d="M452.267,110.933l-39.253-23.552c-11.861-7.091-24.448-12.902-37.547-17.323v81.749
		c13.099-4.42,25.685-10.231,37.547-17.323L452.267,110.933z"/>
	<path style="fill:#54ADE3;" d="M324.267,93.867h-85.333c-9.429,0-17.067,7.637-17.067,17.067S229.504,128,238.933,128h85.333
		c9.429,0,17.067-7.637,17.067-17.067S333.696,93.867,324.267,93.867z"/>
</g>
<circle style="fill:#FF9A2E;" cx="110.933" cy="401.067" r="110.933"/>
<g>
	<path style="opacity:0.2;fill:#4F4F4F;enable-background:new    ;" d="M162.133,435.2c-14.14,0-25.6-11.46-25.6-25.6
		c0-14.14,11.46-25.6,25.6-25.6c14.14,0,25.6,11.46,25.6,25.6C187.733,423.74,176.273,435.2,162.133,435.2z M162.133,401.067
		c-4.71,0-8.533,3.823-8.533,8.533c0,4.71,3.823,8.533,8.533,8.533s8.533-3.823,8.533-8.533
		C170.667,404.89,166.844,401.067,162.133,401.067z"/>
	<path style="opacity:0.2;fill:#4F4F4F;enable-background:new    ;" d="M68.267,392.533c-14.14,0-25.6-11.46-25.6-25.6
		s11.46-25.6,25.6-25.6s25.6,11.46,25.6,25.6S82.406,392.533,68.267,392.533z M68.267,358.4c-4.71,0-8.533,3.823-8.533,8.533
		s3.823,8.533,8.533,8.533s8.533-3.823,8.533-8.533S72.977,358.4,68.267,358.4z"/>
	<rect x="110.933" y="332.8" style="opacity:0.2;fill:#4F4F4F;enable-background:new    ;" width="17.067" height="17.067"/>
	<rect x="128" y="460.8" style="opacity:0.2;fill:#4F4F4F;enable-background:new    ;" width="17.067" height="17.067"/>
	<rect x="59.733" y="426.667" style="opacity:0.2;fill:#4F4F4F;enable-background:new    ;" width="17.067" height="17.067"/>
	<rect x="93.867" y="401.067" style="opacity:0.2;fill:#4F4F4F;enable-background:new    ;" width="17.067" height="17.067"/>
</g>
<path style="fill:#1F83B5;" d="M486.4,375.467H341.333c-14.14,0-25.6-11.46-25.6-25.6c0-14.14,11.46-25.6,25.6-25.6h8.533v17.067
	h-8.533c-4.71,0-8.533,3.823-8.533,8.533c0,4.71,3.823,8.533,8.533,8.533H486.4c4.71,0,8.533-3.823,8.533-8.533
	c0-4.71-3.823-8.533-8.533-8.533v-17.067c14.14,0,25.6,11.46,25.6,25.6C512,364.006,500.54,375.467,486.4,375.467z"/>
<g>
	<rect x="110.933" y="76.8" style="fill:#FF9A2E;" width="34.133" height="17.067"/>
	<rect x="85.333" y="102.4" style="fill:#FF9A2E;" width="59.733" height="17.067"/>
	<rect x="51.2" y="102.4" style="fill:#FF9A2E;" width="17.067" height="17.067"/>
	<rect x="110.933" y="128" style="fill:#FF9A2E;" width="34.133" height="17.067"/>
</g>
<g>
	<rect x="247.467" y="435.2" style="fill:#FFC145;" width="17.067" height="17.067"/>
	<rect x="281.6" y="435.2" style="fill:#FFC145;" width="42.667" height="17.067"/>
	<rect x="204.8" y="477.867" style="fill:#FFC145;" width="34.133" height="17.067"/>
	<rect x="256" y="477.867" style="fill:#FFC145;" width="145.067" height="17.067"/>
	<rect x="34.133" y="187.733" style="fill:#FFC145;" width="42.667" height="17.067"/>
	<rect y="187.733" style="fill:#FFC145;" width="17.067" height="17.067"/>
	<rect y="8.533" style="fill:#FFC145;" width="17.067" height="17.067"/>
	<rect x="34.133" y="8.533" style="fill:#FFC145;" width="17.067" height="17.067"/>
	<rect x="256" y="196.267" style="fill:#FFC145;" width="34.133" height="17.067"/>
	<rect x="315.733" y="196.267" style="fill:#FFC145;" width="51.2" height="17.067"/>
	<rect x="452.267" style="fill:#FFC145;" width="59.733" height="17.067"/>
	<rect x="384" y="196.267" style="fill:#FFC145;" width="17.067" height="17.067"/>
	<rect x="477.867" y="256" style="fill:#FFC145;" width="17.067" height="17.067"/>
	<rect x="358.4" style="fill:#FFC145;" width="76.8" height="17.067"/>
	<rect x="324.267" style="fill:#FFC145;" width="17.067" height="17.067"/>
</g>
<g>
</g>
<g>
</g>
<g>
</g>
<g>
</g>
<g>
</g>
<g>
</g>
<g>
</g>
<g>
</g>
<g>
</g>
<g>
</g>
<g>
</g>
<g>
</g>
<g>
</g>
<g>
</g>
<g>
</g>
</svg>
